<svg width="18" height="18" viewBox="0 0 16 16" fill="none" xmlns="http://www.w3.org/2000/svg">
<path d="M4.66684 12.6667H3.21017C2.99988 12.6673 2.79301 12.6135 2.60962 12.5106C2.42623 12.4077 2.27255 12.2591 2.1635 12.0793C2.05878 11.8987 2.0034 11.6938 2.00293 11.485C2.00246 11.2763 2.05692 11.0711 2.16084 10.89L4.7975 6.33333M4.7975 6.33333L5.52881 9.064M4.7975 6.33333L2.06681 7.06533M7.3335 12.6666H12.8022C13.0114 12.665 13.2168 12.6096 13.3985 12.5057C13.5801 12.4018 13.732 12.2529 13.8395 12.0733C13.9428 11.8932 13.9971 11.6892 13.9971 11.4816C13.9971 11.274 13.9428 11.0701 13.8395 10.89L13.0222 9.47664M7.3335 12.6666L9.3335 10.6667M7.3335 12.6666L9.3335 14.6667M6.22949 3.874L6.95816 2.61267C7.06279 2.43027 7.21279 2.27801 7.39361 2.17066C7.57443 2.06331 7.77993 2.00453 7.99016 2C8.19878 1.99961 8.40384 2.05411 8.58475 2.15802C8.76565 2.26193 8.91605 2.4116 9.02083 2.592L11.6495 7.154M11.6495 7.154L8.91886 6.42201M11.6495 7.154L12.3809 4.42334" stroke="#52525B" stroke-width="1.5" stroke-linecap="round" stroke-linejoin="round"/>
</svg>
