<svg width="18" height="18" viewBox="0 0 16 16" fill="none" xmlns="http://www.w3.org/2000/svg">
<path d="M14 8V4.66667H3.33333C2.97971 4.66667 2.64057 4.52619 2.39052 4.27614C2.14048 4.02609 2 3.68696 2 3.33333M2 3.33333C2 2.97971 2.14048 2.64057 2.39052 2.39052C2.64057 2.14048 2.97971 2 3.33333 2H12.6667V4.66667M2 3.33333V12.6667C2 13.0203 2.14048 13.3594 2.39052 13.6095C2.64057 13.8595 2.97971 14 3.33333 14H14V10.6667M12 8C11.6464 8 11.3072 8.14048 11.0572 8.39052C10.8071 8.64057 10.6667 8.97971 10.6667 9.33333C10.6667 9.68696 10.8071 10.0261 11.0572 10.2761C11.3072 10.5262 11.6464 10.6667 12 10.6667H14.6667V8H12Z" stroke="#52525B" stroke-width="1.5" stroke-linecap="round" stroke-linejoin="round"/>
</svg>
