<svg width="17" height="17" viewBox="0 0 17 17" fill="none" xmlns="http://www.w3.org/2000/svg">
<path d="M14.875 3.54163C14.875 4.71523 12.0208 5.66663 8.5 5.66663C4.97918 5.66663 2.125 4.71523 2.125 3.54163M14.875 3.54163C14.875 2.36802 12.0208 1.41663 8.5 1.41663C4.97918 1.41663 2.125 2.36802 2.125 3.54163M14.875 3.54163V13.4583C14.875 14.0219 14.2033 14.5624 13.0078 14.9609C11.8123 15.3594 10.1908 15.5833 8.5 15.5833C6.80924 15.5833 5.18774 15.3594 3.99219 14.9609C2.79665 14.5624 2.125 14.0219 2.125 13.4583V3.54163M2.125 8.49996C2.125 9.06354 2.79665 9.60405 3.99219 10.0026C5.18774 10.4011 6.80924 10.625 8.5 10.625C10.1908 10.625 11.8123 10.4011 13.0078 10.0026C14.2033 9.60405 14.875 9.06354 14.875 8.49996" stroke="#E5E7EB" stroke-linecap="round" stroke-linejoin="round"/>
</svg>
