<svg width="1244" height="462" viewBox="0 0 1244 462" fill="none" xmlns="http://www.w3.org/2000/svg">
<rect x="0.25" y="0.25" width="1243.5" height="461.5" rx="4.75" fill="white" stroke="#6B7280" stroke-width="0.5" stroke-linecap="round" stroke-linejoin="round" stroke-dasharray="2 7"/>
<path d="M511.647 172.35H513.942L518.457 180.24V172.35H520.422V183H518.037L513.612 175.335V183H511.647V172.35ZM525.935 183.18C523.565 183.18 522.005 181.545 522.005 179.025C522.005 176.505 523.565 174.87 525.935 174.87C528.305 174.87 529.865 176.505 529.865 179.025C529.865 181.545 528.305 183.18 525.935 183.18ZM524 179.025C524 180.66 524.705 181.605 525.935 181.605C527.165 181.605 527.87 180.66 527.87 179.025C527.87 177.39 527.165 176.445 525.935 176.445C524.705 176.445 524 177.39 524 179.025ZM539.355 172.35C541.86 172.35 543.36 173.625 543.36 175.74C543.36 177.885 541.86 179.175 539.355 179.175H537.21V183H535.245V172.35H539.355ZM537.21 177.45H539.28C540.6 177.45 541.32 176.88 541.32 175.74C541.32 174.63 540.615 174.075 539.28 174.075H537.21V177.45ZM549.751 183.24C546.571 183.24 544.681 181.11 544.681 177.69C544.681 174.24 546.571 172.11 549.751 172.11C552.931 172.11 554.836 174.24 554.836 177.69C554.836 181.11 552.931 183.24 549.751 183.24ZM546.721 177.69C546.721 180.075 547.846 181.515 549.751 181.515C551.686 181.515 552.811 180.075 552.811 177.69C552.811 175.275 551.686 173.835 549.751 173.835C547.846 173.835 546.721 175.275 546.721 177.69ZM558.281 179.415C558.521 180.66 559.376 181.47 560.831 181.47C561.956 181.47 562.721 181.02 562.706 180.165C562.706 179.28 561.941 178.785 560.141 178.32C558.026 177.81 556.511 176.91 556.511 175.185C556.511 173.295 558.056 172.11 560.351 172.11C562.721 172.11 564.296 173.55 564.536 175.65L562.556 175.74C562.406 174.57 561.551 173.805 560.321 173.805C559.256 173.805 558.506 174.36 558.521 175.2C558.551 176.25 559.796 176.55 560.966 176.85C563.186 177.39 564.716 178.395 564.716 180.075C564.716 182.085 562.931 183.18 560.756 183.18C558.236 183.18 556.466 181.755 556.301 179.535L558.281 179.415ZM570.99 173.25H572.94V175.05H575.04V176.55H572.94V180.555C572.94 181.17 573.24 181.485 573.84 181.485H575.04V183H573.51C571.875 183 570.99 182.175 570.99 180.555V176.55H569.745V175.05H570.99V173.25ZM575.984 179.025C575.984 176.505 577.544 174.87 579.914 174.87C581.954 174.87 583.619 176.25 583.649 179.07L583.664 179.55H578.009C578.099 180.87 578.789 181.65 579.914 181.65C580.634 181.65 581.279 181.245 581.564 180.555L583.544 180.705C583.079 182.235 581.639 183.18 579.914 183.18C577.544 183.18 575.984 181.545 575.984 179.025ZM578.039 178.26H581.654C581.504 176.91 580.754 176.4 579.914 176.4C578.864 176.4 578.189 177.105 578.039 178.26ZM585.222 175.05H587.037L587.082 176.595C587.382 175.56 587.967 175.05 588.987 175.05H589.737V176.565H588.972C587.697 176.565 587.172 177.195 587.172 178.47V183H585.222V175.05ZM591.038 175.05H592.793L592.838 176.325C593.228 175.395 594.023 174.87 595.073 174.87C596.198 174.87 597.008 175.47 597.353 176.505C597.743 175.425 598.568 174.87 599.708 174.87C601.328 174.87 602.333 175.92 602.333 177.885V183H600.383V178.5C600.383 177.15 599.963 176.445 599.123 176.445C598.103 176.445 597.563 177.165 597.563 178.5V183H595.793V178.5C595.793 177.165 595.373 176.445 594.548 176.445C593.528 176.445 592.988 177.195 592.988 178.5V183H591.038V175.05ZM604.426 175.05H606.376V183H604.426V175.05ZM604.396 173.94V172.35H606.406V173.94H604.396ZM608.264 175.05H610.019L610.064 176.34C610.499 175.29 611.399 174.87 612.464 174.87C614.219 174.87 615.179 176.1 615.179 177.885V183H613.244V178.5C613.244 177.18 612.899 176.445 611.879 176.445C610.814 176.445 610.214 177.18 610.214 178.5V183H608.264V175.05ZM616.973 177.465C617.288 175.83 618.578 174.87 620.528 174.87C622.823 174.87 624.038 176.055 624.038 178.29V181.005C624.038 181.47 624.233 181.59 624.533 181.59H624.833V183L624.383 183.015C623.768 183.015 622.493 183.03 622.343 181.8C621.983 182.58 621.083 183.18 619.703 183.18C618.113 183.18 616.853 182.325 616.853 180.915C616.853 179.37 617.993 178.875 619.853 178.5L622.088 178.05C622.073 176.85 621.563 176.265 620.528 176.265C619.688 176.265 619.148 176.715 618.953 177.585L616.973 177.465ZM618.848 180.855C618.848 181.395 619.298 181.815 620.228 181.815C621.308 181.815 622.118 181.035 622.118 179.46V179.37L620.618 179.64C619.613 179.835 618.848 179.94 618.848 180.855ZM626.355 172.35H628.305V180.915C628.305 181.29 628.5 181.485 628.86 181.485H629.475V183H628.35C627.165 183 626.355 182.265 626.355 181.005V172.35ZM635.605 177.585C635.47 176.805 634.75 176.325 634 176.325C633.265 176.325 632.68 176.715 632.695 177.345C632.71 177.99 633.505 178.275 634.285 178.41C636.445 178.77 637.66 179.34 637.66 180.87C637.66 182.445 636.13 183.18 634.27 183.18C632.095 183.18 630.625 182.16 630.505 180.48L632.47 180.375C632.62 181.2 633.235 181.71 634.24 181.71C634.87 181.71 635.665 181.47 635.665 180.825C635.65 180.06 634.78 179.94 633.97 179.76C632.02 179.37 630.685 178.875 630.685 177.375C630.685 175.815 631.99 174.855 634.105 174.855C635.98 174.855 637.315 175.875 637.57 177.495L635.605 177.585ZM642.593 177.465C642.908 175.83 644.198 174.87 646.148 174.87C648.443 174.87 649.658 176.055 649.658 178.29V181.005C649.658 181.47 649.853 181.59 650.153 181.59H650.453V183L650.003 183.015C649.388 183.015 648.113 183.03 647.963 181.8C647.603 182.58 646.703 183.18 645.323 183.18C643.733 183.18 642.473 182.325 642.473 180.915C642.473 179.37 643.613 178.875 645.473 178.5L647.708 178.05C647.693 176.85 647.183 176.265 646.148 176.265C645.308 176.265 644.768 176.715 644.573 177.585L642.593 177.465ZM644.468 180.855C644.468 181.395 644.918 181.815 645.848 181.815C646.928 181.815 647.738 181.035 647.738 179.46V179.37L646.238 179.64C645.233 179.835 644.468 179.94 644.468 180.855ZM656.523 177.585C656.388 176.805 655.668 176.325 654.918 176.325C654.183 176.325 653.598 176.715 653.613 177.345C653.628 177.99 654.423 178.275 655.203 178.41C657.363 178.77 658.578 179.34 658.578 180.87C658.578 182.445 657.048 183.18 655.188 183.18C653.013 183.18 651.543 182.16 651.423 180.48L653.388 180.375C653.538 181.2 654.153 181.71 655.158 181.71C655.788 181.71 656.583 181.47 656.583 180.825C656.568 180.06 655.698 179.94 654.888 179.76C652.938 179.37 651.603 178.875 651.603 177.375C651.603 175.815 652.908 174.855 655.023 174.855C656.898 174.855 658.233 175.875 658.488 177.495L656.523 177.585ZM664.946 177.585C664.811 176.805 664.091 176.325 663.341 176.325C662.606 176.325 662.021 176.715 662.036 177.345C662.051 177.99 662.846 178.275 663.626 178.41C665.786 178.77 667.001 179.34 667.001 180.87C667.001 182.445 665.471 183.18 663.611 183.18C661.436 183.18 659.966 182.16 659.846 180.48L661.811 180.375C661.961 181.2 662.576 181.71 663.581 181.71C664.211 181.71 665.006 181.47 665.006 180.825C664.991 180.06 664.121 179.94 663.311 179.76C661.361 179.37 660.026 178.875 660.026 177.375C660.026 175.815 661.331 174.855 663.446 174.855C665.321 174.855 666.656 175.875 666.911 177.495L664.946 177.585ZM668.455 175.05H670.405V183H668.455V175.05ZM668.425 173.94V172.35H670.435V173.94H668.425ZM675.499 182.61C673.429 182.61 672.034 181.08 672.034 178.815C672.034 176.46 673.429 174.87 675.484 174.87C676.519 174.87 677.389 175.395 677.794 176.265V175.05H679.699V182.1C679.699 184.215 678.124 185.43 675.874 185.43C674.059 185.43 672.679 184.53 672.244 183.165L674.239 183.03C674.494 183.615 675.079 183.975 675.889 183.975C677.059 183.975 677.749 183.42 677.749 182.355V181.35C677.359 182.13 676.489 182.61 675.499 182.61ZM674.029 178.8C674.029 180.255 674.779 181.17 675.919 181.17C677.074 181.17 677.794 180.255 677.809 178.8C677.824 177.33 677.089 176.415 675.919 176.415C674.749 176.415 674.029 177.33 674.029 178.8ZM681.8 175.05H683.555L683.6 176.34C684.035 175.29 684.935 174.87 686 174.87C687.755 174.87 688.715 176.1 688.715 177.885V183H686.78V178.5C686.78 177.18 686.435 176.445 685.415 176.445C684.35 176.445 683.75 177.18 683.75 178.5V183H681.8V175.05ZM690.183 179.025C690.183 176.505 691.743 174.87 694.113 174.87C696.153 174.87 697.818 176.25 697.848 179.07L697.863 179.55H692.208C692.298 180.87 692.988 181.65 694.113 181.65C694.833 181.65 695.478 181.245 695.763 180.555L697.743 180.705C697.278 182.235 695.838 183.18 694.113 183.18C691.743 183.18 690.183 181.545 690.183 179.025ZM692.238 178.26H695.853C695.703 176.91 694.953 176.4 694.113 176.4C693.063 176.4 692.388 177.105 692.238 178.26ZM706.799 172.35V183H704.954L704.909 181.875C704.474 182.685 703.559 183.18 702.479 183.18C700.409 183.18 699.119 181.575 699.119 179.025C699.119 176.475 700.409 174.87 702.479 174.87C703.499 174.87 704.399 175.335 704.849 176.115V172.35H706.799ZM701.114 179.025C701.114 180.6 701.879 181.62 703.049 181.62C704.234 181.62 704.984 180.6 704.984 179.025C704.984 177.405 704.219 176.385 703.049 176.385C701.864 176.385 701.114 177.405 701.114 179.025ZM711.709 175.05H713.614L715.714 180.96L717.754 175.05H719.644L716.479 183.84C716.149 184.815 715.489 185.25 714.424 185.25H713.119V183.765H714.094C714.529 183.765 714.769 183.615 714.934 183.255L715.159 182.685H714.589L711.709 175.05ZM720.198 179.025C720.198 176.505 721.758 174.87 724.128 174.87C726.168 174.87 727.833 176.25 727.863 179.07L727.878 179.55H722.223C722.313 180.87 723.003 181.65 724.128 181.65C724.848 181.65 725.493 181.245 725.778 180.555L727.758 180.705C727.293 182.235 725.853 183.18 724.128 183.18C721.758 183.18 720.198 181.545 720.198 179.025ZM722.253 178.26H725.868C725.718 176.91 724.968 176.4 724.128 176.4C723.078 176.4 722.403 177.105 722.253 178.26ZM730.013 173.25H731.963V175.05H734.063V176.55H731.963V180.555C731.963 181.17 732.263 181.485 732.863 181.485H734.063V183H732.533C730.898 183 730.013 182.175 730.013 180.555V176.55H728.768V175.05H730.013V173.25Z" fill="#3F3F46"/>
<circle cx="622" cy="124" r="34" fill="#F4F4F5"/>
<path d="M478.867 210L482.195 200.77H483.729L487.057 210H485.809L484.899 207.387H481.025L480.115 210H478.867ZM481.415 206.269H484.509L482.962 201.771L481.415 206.269ZM488.368 200.77H489.486V208.596C489.486 208.882 489.616 209.012 489.902 209.012H490.5V210H489.72C488.914 210 488.368 209.454 488.368 208.648V200.77ZM492.062 200.77H493.18V208.596C493.18 208.882 493.31 209.012 493.596 209.012H494.194V210H493.414C492.608 210 492.062 209.454 492.062 208.648V200.77ZM498.695 205.138C498.968 203.799 500.047 202.954 501.516 202.954C503.297 202.954 504.298 203.994 504.298 205.84V208.596C504.298 208.882 504.428 209.012 504.714 209.012H505V210H504.519C503.817 210 503.193 209.779 503.193 208.947C502.907 209.571 502.153 210.156 501.061 210.156C499.696 210.156 498.578 209.428 498.578 208.193C498.578 206.763 499.644 206.412 501.178 206.113L503.18 205.723C503.167 204.579 502.621 204.02 501.516 204.02C500.658 204.02 500.086 204.449 499.878 205.229L498.695 205.138ZM499.748 208.193C499.748 208.726 500.203 209.168 501.204 209.168C502.322 209.168 503.206 208.388 503.206 206.776V206.711L501.594 206.997C500.58 207.179 499.748 207.231 499.748 208.193ZM510.322 205.242C510.166 204.475 509.399 204.02 508.645 204.02C507.891 204.02 507.28 204.397 507.28 205.047C507.28 205.723 508.177 205.996 508.905 206.139C510.465 206.438 511.622 206.867 511.622 208.245C511.622 209.584 510.231 210.156 508.931 210.156C507.293 210.156 506.045 209.259 505.941 207.829L507.111 207.751C507.254 208.57 507.904 209.09 508.931 209.09C509.581 209.09 510.452 208.882 510.452 208.18C510.452 207.361 509.49 207.283 508.71 207.101C507.462 206.815 506.11 206.464 506.11 205.112C506.11 203.786 507.176 202.954 508.762 202.954C510.14 202.954 511.271 203.825 511.492 205.164L510.322 205.242ZM517.228 205.242C517.072 204.475 516.305 204.02 515.551 204.02C514.797 204.02 514.186 204.397 514.186 205.047C514.186 205.723 515.083 205.996 515.811 206.139C517.371 206.438 518.528 206.867 518.528 208.245C518.528 209.584 517.137 210.156 515.837 210.156C514.199 210.156 512.951 209.259 512.847 207.829L514.017 207.751C514.16 208.57 514.81 209.09 515.837 209.09C516.487 209.09 517.358 208.882 517.358 208.18C517.358 207.361 516.396 207.283 515.616 207.101C514.368 206.815 513.016 206.464 513.016 205.112C513.016 203.786 514.082 202.954 515.668 202.954C517.046 202.954 518.177 203.825 518.398 205.164L517.228 205.242ZM519.929 203.11H521.047V210H519.929V203.11ZM519.903 202.031V200.77H521.073V202.031H519.903ZM525.741 209.636C523.96 209.636 522.699 208.258 522.699 206.295C522.699 204.332 523.947 202.954 525.728 202.954C526.664 202.954 527.444 203.422 527.756 204.176V203.11H528.822V209.324C528.822 211.144 527.574 212.106 525.767 212.106C524.298 212.106 523.206 211.313 522.881 210.104L524.051 210.026C524.337 210.663 524.922 211.04 525.767 211.04C526.976 211.04 527.704 210.533 527.704 209.584V208.453C527.366 209.181 526.612 209.636 525.741 209.636ZM523.869 206.295C523.869 207.699 524.61 208.57 525.806 208.57C526.963 208.57 527.704 207.699 527.717 206.295C527.743 204.891 527.002 204.02 525.806 204.02C524.61 204.02 523.869 204.891 523.869 206.295ZM530.897 203.11H531.911L531.95 204.293C532.301 203.37 533.107 202.954 534.056 202.954C535.629 202.954 536.383 204.111 536.383 205.567V210H535.265V205.879C535.265 204.618 534.849 203.942 533.822 203.942C532.73 203.942 532.015 204.618 532.015 205.879V210H530.897V203.11ZM537.844 206.555C537.844 204.358 539.092 202.954 541.003 202.954C542.511 202.954 543.876 203.929 543.993 206.399L544.006 206.906H539.027C539.131 208.284 539.833 209.09 541.003 209.09C541.731 209.09 542.394 208.674 542.706 207.959L543.902 208.05C543.499 209.35 542.329 210.156 541.003 210.156C539.092 210.156 537.844 208.752 537.844 206.555ZM539.053 205.918H542.784C542.589 204.488 541.822 204.02 541.003 204.02C539.924 204.02 539.235 204.722 539.053 205.918ZM551.369 200.77V210H550.355L550.316 209.038C549.939 209.727 549.107 210.156 548.145 210.156C546.351 210.156 545.233 208.765 545.233 206.555C545.233 204.345 546.351 202.954 548.145 202.954C549.068 202.954 549.874 203.357 550.251 203.994V200.77H551.369ZM546.403 206.555C546.403 208.115 547.17 209.09 548.379 209.09C549.588 209.09 550.355 208.115 550.355 206.555C550.355 204.969 549.588 203.968 548.379 203.968C547.17 203.968 546.403 204.969 546.403 206.555ZM560.165 200.77C562.232 200.77 563.441 201.81 563.441 203.565C563.441 205.359 562.232 206.425 560.165 206.425H557.994V210H556.85V200.77H560.165ZM557.994 205.307H560.165C561.556 205.307 562.245 204.722 562.245 203.565C562.245 202.447 561.556 201.888 560.165 201.888H557.994V205.307ZM568.984 210.208C566.345 210.208 564.759 208.375 564.759 205.398C564.759 202.395 566.345 200.562 568.984 200.562C571.623 200.562 573.209 202.395 573.209 205.398C573.209 208.375 571.623 210.208 568.984 210.208ZM565.955 205.398C565.955 207.686 567.086 209.09 568.984 209.09C570.882 209.09 572.013 207.686 572.013 205.398C572.013 203.084 570.882 201.68 568.984 201.68C567.086 201.68 565.955 203.084 565.955 205.398ZM575.81 206.971C576.057 208.206 576.915 209.038 578.371 209.038C579.541 209.038 580.321 208.583 580.321 207.673C580.321 206.737 579.515 206.178 577.682 205.71C576.187 205.333 574.809 204.592 574.809 203.097C574.809 201.537 576.057 200.562 577.825 200.562C579.814 200.562 581.127 201.797 581.322 203.5L580.126 203.578C579.957 202.434 579.073 201.68 577.812 201.68C576.772 201.68 576.005 202.226 576.005 203.097C576.005 204.228 577.37 204.527 578.501 204.839C580.165 205.307 581.517 206.139 581.517 207.556C581.517 209.272 579.944 210.156 578.28 210.156C576.252 210.156 574.77 208.921 574.614 207.049L575.81 206.971ZM587.255 201.55H588.373V203.11H590.219V204.098H588.373V208.154C588.373 208.726 588.646 209.012 589.192 209.012H590.193V210H589.192C587.944 210 587.255 209.337 587.255 208.154V204.098H586.254V203.11H587.255V201.55ZM591.127 206.555C591.127 204.358 592.375 202.954 594.286 202.954C595.794 202.954 597.159 203.929 597.276 206.399L597.289 206.906H592.31C592.414 208.284 593.116 209.09 594.286 209.09C595.014 209.09 595.677 208.674 595.989 207.959L597.185 208.05C596.782 209.35 595.612 210.156 594.286 210.156C592.375 210.156 591.127 208.752 591.127 206.555ZM592.336 205.918H596.067C595.872 204.488 595.105 204.02 594.286 204.02C593.207 204.02 592.518 204.722 592.336 205.918ZM598.881 203.11H599.869L599.908 204.345C600.129 203.5 600.636 203.11 601.533 203.11H602.209V204.098H601.533C600.48 204.098 599.999 204.709 599.999 205.892V210H598.881V203.11ZM603.464 203.11H604.478L604.517 204.254C604.842 203.422 605.544 202.954 606.493 202.954C607.494 202.954 608.209 203.474 608.508 204.384C608.807 203.461 609.522 202.954 610.601 202.954C611.992 202.954 612.798 203.903 612.798 205.567V210H611.68V205.879C611.68 204.644 611.199 203.942 610.367 203.942C609.301 203.942 608.69 204.644 608.69 205.879V210H607.572V205.879C607.572 204.67 607.078 203.942 606.259 203.942C605.206 203.942 604.582 204.67 604.582 205.879V210H603.464V203.11ZM614.877 203.11H615.995V210H614.877V203.11ZM614.851 202.031V200.77H616.021V202.031H614.851ZM617.886 203.11H618.9L618.939 204.293C619.29 203.37 620.096 202.954 621.045 202.954C622.618 202.954 623.372 204.111 623.372 205.567V210H622.254V205.879C622.254 204.618 621.838 203.942 620.811 203.942C619.719 203.942 619.004 204.618 619.004 205.879V210H617.886V203.11ZM625.14 205.138C625.413 203.799 626.492 202.954 627.961 202.954C629.742 202.954 630.743 203.994 630.743 205.84V208.596C630.743 208.882 630.873 209.012 631.159 209.012H631.445V210H630.964C630.262 210 629.638 209.779 629.638 208.947C629.352 209.571 628.598 210.156 627.506 210.156C626.141 210.156 625.023 209.428 625.023 208.193C625.023 206.763 626.089 206.412 627.623 206.113L629.625 205.723C629.612 204.579 629.066 204.02 627.961 204.02C627.103 204.02 626.531 204.449 626.323 205.229L625.14 205.138ZM626.193 208.193C626.193 208.726 626.648 209.168 627.649 209.168C628.767 209.168 629.651 208.388 629.651 206.776V206.711L628.039 206.997C627.025 207.179 626.193 207.231 626.193 208.193ZM632.942 200.77H634.06V208.596C634.06 208.882 634.19 209.012 634.476 209.012H635.074V210H634.294C633.488 210 632.942 209.454 632.942 208.648V200.77ZM640.462 205.242C640.306 204.475 639.539 204.02 638.785 204.02C638.031 204.02 637.42 204.397 637.42 205.047C637.42 205.723 638.317 205.996 639.045 206.139C640.605 206.438 641.762 206.867 641.762 208.245C641.762 209.584 640.371 210.156 639.071 210.156C637.433 210.156 636.185 209.259 636.081 207.829L637.251 207.751C637.394 208.57 638.044 209.09 639.071 209.09C639.721 209.09 640.592 208.882 640.592 208.18C640.592 207.361 639.63 207.283 638.85 207.101C637.602 206.815 636.25 206.464 636.25 205.112C636.25 203.786 637.316 202.954 638.902 202.954C640.28 202.954 641.411 203.825 641.632 205.164L640.462 205.242ZM651.554 203.11L653.179 208.765L654.804 203.11H656L653.881 210H652.477L650.956 204.8L649.435 210H648.031L645.912 203.11H647.108L648.733 208.765L650.358 203.11H651.554ZM657.33 203.11H658.448V210H657.33V203.11ZM657.304 202.031V200.77H658.474V202.031H657.304ZM660.529 200.77H661.647V208.596C661.647 208.882 661.777 209.012 662.063 209.012H662.661V210H661.881C661.075 210 660.529 209.454 660.529 208.648V200.77ZM664.224 200.77H665.342V208.596C665.342 208.882 665.472 209.012 665.758 209.012H666.356V210H665.576C664.77 210 664.224 209.454 664.224 208.648V200.77ZM670.856 205.138C671.129 203.799 672.208 202.954 673.677 202.954C675.458 202.954 676.459 203.994 676.459 205.84V208.596C676.459 208.882 676.589 209.012 676.875 209.012H677.161V210H676.68C675.978 210 675.354 209.779 675.354 208.947C675.068 209.571 674.314 210.156 673.222 210.156C671.857 210.156 670.739 209.428 670.739 208.193C670.739 206.763 671.805 206.412 673.339 206.113L675.341 205.723C675.328 204.579 674.782 204.02 673.677 204.02C672.819 204.02 672.247 204.449 672.039 205.229L670.856 205.138ZM671.909 208.193C671.909 208.726 672.364 209.168 673.365 209.168C674.483 209.168 675.367 208.388 675.367 206.776V206.711L673.755 206.997C672.741 207.179 671.909 207.231 671.909 208.193ZM678.557 211.95V203.11H679.571L679.61 204.111C679.987 203.37 680.715 202.954 681.716 202.954C683.783 202.954 684.693 204.67 684.693 206.555C684.693 208.44 683.783 210.156 681.716 210.156C680.767 210.156 680.052 209.792 679.675 209.077V211.95H678.557ZM679.545 206.555C679.545 207.829 680.117 209.09 681.521 209.09C682.938 209.09 683.497 207.842 683.497 206.555C683.497 205.268 682.938 204.02 681.521 204.02C680.117 204.02 679.545 205.281 679.545 206.555ZM686.275 211.95V203.11H687.289L687.328 204.111C687.705 203.37 688.433 202.954 689.434 202.954C691.501 202.954 692.411 204.67 692.411 206.555C692.411 208.44 691.501 210.156 689.434 210.156C688.485 210.156 687.77 209.792 687.393 209.077V211.95H686.275ZM687.263 206.555C687.263 207.829 687.835 209.09 689.239 209.09C690.656 209.09 691.215 207.842 691.215 206.555C691.215 205.268 690.656 204.02 689.239 204.02C687.835 204.02 687.263 205.281 687.263 206.555ZM693.629 206.555C693.629 204.358 694.877 202.954 696.788 202.954C698.296 202.954 699.661 203.929 699.778 206.399L699.791 206.906H694.812C694.916 208.284 695.618 209.09 696.788 209.09C697.516 209.09 698.179 208.674 698.491 207.959L699.687 208.05C699.284 209.35 698.114 210.156 696.788 210.156C694.877 210.156 693.629 208.752 693.629 206.555ZM694.838 205.918H698.569C698.374 204.488 697.607 204.02 696.788 204.02C695.709 204.02 695.02 204.722 694.838 205.918ZM701.198 205.138C701.471 203.799 702.55 202.954 704.019 202.954C705.8 202.954 706.801 203.994 706.801 205.84V208.596C706.801 208.882 706.931 209.012 707.217 209.012H707.503V210H707.022C706.32 210 705.696 209.779 705.696 208.947C705.41 209.571 704.656 210.156 703.564 210.156C702.199 210.156 701.081 209.428 701.081 208.193C701.081 206.763 702.147 206.412 703.681 206.113L705.683 205.723C705.67 204.579 705.124 204.02 704.019 204.02C703.161 204.02 702.589 204.449 702.381 205.229L701.198 205.138ZM702.251 208.193C702.251 208.726 702.706 209.168 703.707 209.168C704.825 209.168 705.709 208.388 705.709 206.776V206.711L704.097 206.997C703.083 207.179 702.251 207.231 702.251 208.193ZM708.898 203.11H709.886L709.925 204.345C710.146 203.5 710.653 203.11 711.55 203.11H712.226V204.098H711.55C710.497 204.098 710.016 204.709 710.016 205.892V210H708.898V203.11ZM717.125 200.77H718.243V204.02C718.646 203.292 719.452 202.954 720.284 202.954C721.857 202.954 722.611 204.111 722.611 205.567V210H721.493V205.957C721.493 204.696 721.077 204.02 720.05 204.02C718.958 204.02 718.243 204.696 718.243 205.957V210H717.125V200.77ZM724.072 206.555C724.072 204.358 725.32 202.954 727.231 202.954C728.739 202.954 730.104 203.929 730.221 206.399L730.234 206.906H725.255C725.359 208.284 726.061 209.09 727.231 209.09C727.959 209.09 728.622 208.674 728.934 207.959L730.13 208.05C729.727 209.35 728.557 210.156 727.231 210.156C725.32 210.156 724.072 208.752 724.072 206.555ZM725.281 205.918H729.012C728.817 204.488 728.05 204.02 727.231 204.02C726.152 204.02 725.463 204.722 725.281 205.918ZM731.826 203.11H732.814L732.853 204.345C733.074 203.5 733.581 203.11 734.478 203.11H735.154V204.098H734.478C733.425 204.098 732.944 204.709 732.944 205.892V210H731.826V203.11ZM735.853 206.555C735.853 204.358 737.101 202.954 739.012 202.954C740.52 202.954 741.885 203.929 742.002 206.399L742.015 206.906H737.036C737.14 208.284 737.842 209.09 739.012 209.09C739.74 209.09 740.403 208.674 740.715 207.959L741.911 208.05C741.508 209.35 740.338 210.156 739.012 210.156C737.101 210.156 735.853 208.752 735.853 206.555ZM737.062 205.918H740.793C740.598 204.488 739.831 204.02 739.012 204.02C737.933 204.02 737.244 204.722 737.062 205.918ZM743.242 208.57H744.659V210H743.242V208.57ZM757.036 210H756.204L756.1 208.492C755.71 209.506 754.566 210.208 753.344 210.208C750.679 210.208 749.158 208.063 749.158 205.398C749.158 202.72 750.666 200.562 753.344 200.562C755.307 200.562 756.594 201.784 756.997 203.604L755.801 203.682C755.502 202.447 754.67 201.68 753.344 201.68C751.238 201.68 750.354 203.422 750.354 205.398C750.354 207.361 751.251 209.09 753.344 209.09C754.943 209.09 755.84 207.933 755.931 206.438H753.344V205.32H757.036V210ZM761.635 210.156C759.724 210.156 758.476 208.752 758.476 206.555C758.476 204.358 759.724 202.954 761.635 202.954C763.546 202.954 764.794 204.358 764.794 206.555C764.794 208.752 763.546 210.156 761.635 210.156ZM759.646 206.555C759.646 208.141 760.374 209.09 761.635 209.09C762.896 209.09 763.624 208.141 763.624 206.555C763.624 204.969 762.896 204.02 761.635 204.02C760.374 204.02 759.646 204.969 759.646 206.555ZM577.355 225.138C577.628 223.799 578.707 222.954 580.176 222.954C581.957 222.954 582.958 223.994 582.958 225.84V228.596C582.958 228.882 583.088 229.012 583.374 229.012H583.66V230H583.179C582.477 230 581.853 229.779 581.853 228.947C581.567 229.571 580.813 230.156 579.721 230.156C578.356 230.156 577.238 229.428 577.238 228.193C577.238 226.763 578.304 226.412 579.838 226.113L581.84 225.723C581.827 224.579 581.281 224.02 580.176 224.02C579.318 224.02 578.746 224.449 578.538 225.229L577.355 225.138ZM578.408 228.193C578.408 228.726 578.863 229.168 579.864 229.168C580.982 229.168 581.866 228.388 581.866 226.776V226.711L580.254 226.997C579.24 227.179 578.408 227.231 578.408 228.193ZM585.056 223.11H586.07L586.109 224.293C586.46 223.37 587.266 222.954 588.215 222.954C589.788 222.954 590.542 224.111 590.542 225.567V230H589.424V225.879C589.424 224.618 589.008 223.942 587.981 223.942C586.889 223.942 586.174 224.618 586.174 225.879V230H585.056V223.11ZM598.139 220.77V230H597.125L597.086 229.038C596.709 229.727 595.877 230.156 594.915 230.156C593.121 230.156 592.003 228.765 592.003 226.555C592.003 224.345 593.121 222.954 594.915 222.954C595.838 222.954 596.644 223.357 597.021 223.994V220.77H598.139ZM593.173 226.555C593.173 228.115 593.94 229.09 595.149 229.09C596.358 229.09 597.125 228.115 597.125 226.555C597.125 224.969 596.358 223.968 595.149 223.968C593.94 223.968 593.173 224.969 593.173 226.555ZM603.152 225.138C603.425 223.799 604.504 222.954 605.973 222.954C607.754 222.954 608.755 223.994 608.755 225.84V228.596C608.755 228.882 608.885 229.012 609.171 229.012H609.457V230H608.976C608.274 230 607.65 229.779 607.65 228.947C607.364 229.571 606.61 230.156 605.518 230.156C604.153 230.156 603.035 229.428 603.035 228.193C603.035 226.763 604.101 226.412 605.635 226.113L607.637 225.723C607.624 224.579 607.078 224.02 605.973 224.02C605.115 224.02 604.543 224.449 604.335 225.229L603.152 225.138ZM604.205 228.193C604.205 228.726 604.66 229.168 605.661 229.168C606.779 229.168 607.663 228.388 607.663 226.776V226.711L606.051 226.997C605.037 227.179 604.205 227.231 604.205 228.193ZM614.779 225.242C614.623 224.475 613.856 224.02 613.102 224.02C612.348 224.02 611.737 224.397 611.737 225.047C611.737 225.723 612.634 225.996 613.362 226.139C614.922 226.438 616.079 226.867 616.079 228.245C616.079 229.584 614.688 230.156 613.388 230.156C611.75 230.156 610.502 229.259 610.398 227.829L611.568 227.751C611.711 228.57 612.361 229.09 613.388 229.09C614.038 229.09 614.909 228.882 614.909 228.18C614.909 227.361 613.947 227.283 613.167 227.101C611.919 226.815 610.567 226.464 610.567 225.112C610.567 223.786 611.633 222.954 613.219 222.954C614.597 222.954 615.728 223.825 615.949 225.164L614.779 225.242ZM621.685 225.242C621.529 224.475 620.762 224.02 620.008 224.02C619.254 224.02 618.643 224.397 618.643 225.047C618.643 225.723 619.54 225.996 620.268 226.139C621.828 226.438 622.985 226.867 622.985 228.245C622.985 229.584 621.594 230.156 620.294 230.156C618.656 230.156 617.408 229.259 617.304 227.829L618.474 227.751C618.617 228.57 619.267 229.09 620.294 229.09C620.944 229.09 621.815 228.882 621.815 228.18C621.815 227.361 620.853 227.283 620.073 227.101C618.825 226.815 617.473 226.464 617.473 225.112C617.473 223.786 618.539 222.954 620.125 222.954C621.503 222.954 622.634 223.825 622.855 225.164L621.685 225.242ZM624.386 223.11H625.504V230H624.386V223.11ZM624.36 222.031V220.77H625.53V222.031H624.36ZM630.198 229.636C628.417 229.636 627.156 228.258 627.156 226.295C627.156 224.332 628.404 222.954 630.185 222.954C631.121 222.954 631.901 223.422 632.213 224.176V223.11H633.279V229.324C633.279 231.144 632.031 232.106 630.224 232.106C628.755 232.106 627.663 231.313 627.338 230.104L628.508 230.026C628.794 230.663 629.379 231.04 630.224 231.04C631.433 231.04 632.161 230.533 632.161 229.584V228.453C631.823 229.181 631.069 229.636 630.198 229.636ZM628.326 226.295C628.326 227.699 629.067 228.57 630.263 228.57C631.42 228.57 632.161 227.699 632.174 226.295C632.2 224.891 631.459 224.02 630.263 224.02C629.067 224.02 628.326 224.891 628.326 226.295ZM635.354 223.11H636.368L636.407 224.293C636.758 223.37 637.564 222.954 638.513 222.954C640.086 222.954 640.84 224.111 640.84 225.567V230H639.722V225.879C639.722 224.618 639.306 223.942 638.279 223.942C637.187 223.942 636.472 224.618 636.472 225.879V230H635.354V223.11ZM648.901 230.156C646.99 230.156 645.742 228.752 645.742 226.555C645.742 224.358 646.99 222.954 648.901 222.954C650.812 222.954 652.06 224.358 652.06 226.555C652.06 228.752 650.812 230.156 648.901 230.156ZM646.912 226.555C646.912 228.141 647.64 229.09 648.901 229.09C650.162 229.09 650.89 228.141 650.89 226.555C650.89 224.969 650.162 224.02 648.901 224.02C647.64 224.02 646.912 224.969 646.912 226.555ZM653.648 223.11H654.662L654.701 224.293C655.052 223.37 655.858 222.954 656.807 222.954C658.38 222.954 659.134 224.111 659.134 225.567V230H658.016V225.879C658.016 224.618 657.6 223.942 656.573 223.942C655.481 223.942 654.766 224.618 654.766 225.879V230H653.648V223.11ZM660.595 226.555C660.595 224.358 661.843 222.954 663.754 222.954C665.262 222.954 666.627 223.929 666.744 226.399L666.757 226.906H661.778C661.882 228.284 662.584 229.09 663.754 229.09C664.482 229.09 665.145 228.674 665.457 227.959L666.653 228.05C666.25 229.35 665.08 230.156 663.754 230.156C661.843 230.156 660.595 228.752 660.595 226.555ZM661.804 225.918H665.535C665.34 224.488 664.573 224.02 663.754 224.02C662.675 224.02 661.986 224.722 661.804 225.918Z" fill="#71717A"/>
</svg>
